<?xml version="1.0" encoding="us-ascii" standalone="no"?><svg xmlns="http://www.w3.org/2000/svg" xmlns:xlink="http://www.w3.org/1999/xlink" contentStyleType="text/css" height="724px" preserveAspectRatio="none" style="width:965px;height:724px;background:#FFFFFF;" version="1.1" viewBox="0 0 965 724" width="965px" zoomAndPan="magnify"><defs/><g><text fill="#000000" font-family="sans-serif" font-size="14" font-weight="bold" lengthAdjust="spacing" textLength="300" x="325.5" y="24.5332">Main Database Entity-Relationship Diagram</text><!--class User--><g id="elem_User"><rect codeLine="3" fill="#F1F1F1" height="118.4375" id="User" rx="2.5" ry="2.5" style="stroke:#181818;stroke-width:0.5;" width="218" x="382" y="45.6094"/><ellipse cx="472.25" cy="61.6094" fill="#ADD1B2" rx="11" ry="11" style="stroke:#181818;stroke-width:1.0;"/><path d="M471.1094,62.4063 L471.1094,64.9063 L475.4375,64.9063 L475.4375,63.9844 Q475.4375,63.375 475.6797,63.1094 Q475.9219,62.8438 476.2969,62.8438 Q476.6719,62.8438 476.9063,63.1094 Q477.1406,63.375 477.1406,63.9844 L477.1406,66.6094 L469.1406,66.6094 Q468.5156,66.6094 468.2578,66.375 Q468,66.1406 468,65.75 Q468,65.375 468.2656,65.1406 Q468.5313,64.9063 469.1406,64.9063 L469.4063,64.9063 L469.4063,58.25 L469.1406,58.25 Q468.5156,58.25 468.2578,58.0156 Q468,57.7813 468,57.3906 Q468,57.0156 468.2578,56.7813 Q468.5156,56.5469 469.1406,56.5469 L476.7656,56.5469 L476.7656,59.1406 Q476.7656,59.75 476.5391,60.0078 Q476.3125,60.2656 475.9219,60.2656 Q475.5469,60.2656 475.3125,60.0078 Q475.0781,59.75 475.0781,59.1406 L475.0781,58.25 L471.1094,58.25 L471.1094,60.7031 L472.5938,60.7031 Q472.5938,60.0469 472.7188,59.8594 Q472.9844,59.4531 473.4531,59.4531 Q473.8281,59.4531 474.0625,59.7109 Q474.2969,59.9688 474.2969,60.5781 L474.2969,62.5469 Q474.2969,63.0938 474.1719,63.2813 Q473.9063,63.6719 473.4531,63.6719 Q472.9844,63.6719 472.7188,63.2656 Q472.5938,63.0781 472.5938,62.4063 L471.1094,62.4063 Z " fill="#000000"/><text fill="#000000" font-family="sans-serif" font-size="14" lengthAdjust="spacing" textLength="29" x="492.75" y="67.3379">User</text><line style="stroke:#181818;stroke-width:0.5;" x1="383" x2="599" y1="77.6094" y2="77.6094"/><ellipse cx="393" cy="91.9141" fill="#000000" rx="3" ry="3" style="stroke:#000000;stroke-width:1.0;"/><text fill="#000000" font-family="sans-serif" font-size="14" lengthAdjust="spacing" textLength="192" x="402" y="96.1426">user_id : number &#171;generated&#187;</text><line style="stroke:#181818;stroke-width:1.0;" x1="383" x2="599" y1="103.2188" y2="103.2188"/><ellipse cx="393" cy="117.5234" fill="#000000" rx="3" ry="3" style="stroke:#000000;stroke-width:1.0;"/><text fill="#000000" font-family="sans-serif" font-size="14" lengthAdjust="spacing" textLength="69" x="402" y="121.752">name : text</text><ellipse cx="393" cy="135.1328" fill="#000000" rx="3" ry="3" style="stroke:#000000;stroke-width:1.0;"/><text fill="#000000" font-family="sans-serif" font-size="14" lengthAdjust="spacing" textLength="63" x="402" y="139.3613">email: text</text><text fill="#000000" font-family="sans-serif" font-size="14" lengthAdjust="spacing" textLength="126" x="402" y="156.9707">phone_number: text</text></g><!--class House--><g id="elem_House"><rect codeLine="11" fill="#F1F1F1" height="100.8281" id="House" rx="2.5" ry="2.5" style="stroke:#181818;stroke-width:0.5;" width="229" x="376.5" y="223.6094"/><ellipse cx="466.75" cy="239.6094" fill="#ADD1B2" rx="11" ry="11" style="stroke:#181818;stroke-width:1.0;"/><path d="M465.6094,240.4063 L465.6094,242.9063 L469.9375,242.9063 L469.9375,241.9844 Q469.9375,241.375 470.1797,241.1094 Q470.4219,240.8438 470.7969,240.8438 Q471.1719,240.8438 471.4063,241.1094 Q471.6406,241.375 471.6406,241.9844 L471.6406,244.6094 L463.6406,244.6094 Q463.0156,244.6094 462.7578,244.375 Q462.5,244.1406 462.5,243.75 Q462.5,243.375 462.7656,243.1406 Q463.0313,242.9063 463.6406,242.9063 L463.9063,242.9063 L463.9063,236.25 L463.6406,236.25 Q463.0156,236.25 462.7578,236.0156 Q462.5,235.7813 462.5,235.3906 Q462.5,235.0156 462.7578,234.7813 Q463.0156,234.5469 463.6406,234.5469 L471.2656,234.5469 L471.2656,237.1406 Q471.2656,237.75 471.0391,238.0078 Q470.8125,238.2656 470.4219,238.2656 Q470.0469,238.2656 469.8125,238.0078 Q469.5781,237.75 469.5781,237.1406 L469.5781,236.25 L465.6094,236.25 L465.6094,238.7031 L467.0938,238.7031 Q467.0938,238.0469 467.2188,237.8594 Q467.4844,237.4531 467.9531,237.4531 Q468.3281,237.4531 468.5625,237.7109 Q468.7969,237.9688 468.7969,238.5781 L468.7969,240.5469 Q468.7969,241.0938 468.6719,241.2813 Q468.4063,241.6719 467.9531,241.6719 Q467.4844,241.6719 467.2188,241.2656 Q467.0938,241.0781 467.0938,240.4063 L465.6094,240.4063 Z " fill="#000000"/><text fill="#000000" font-family="sans-serif" font-size="14" lengthAdjust="spacing" textLength="40" x="487.25" y="245.3379">House</text><line style="stroke:#181818;stroke-width:0.5;" x1="377.5" x2="604.5" y1="255.6094" y2="255.6094"/><ellipse cx="387.5" cy="269.9141" fill="#000000" rx="3" ry="3" style="stroke:#000000;stroke-width:1.0;"/><text fill="#000000" font-family="sans-serif" font-size="14" lengthAdjust="spacing" textLength="203" x="396.5" y="274.1426">house_id : number &#171;generated&#187;</text><line style="stroke:#181818;stroke-width:1.0;" x1="377.5" x2="604.5" y1="281.2188" y2="281.2188"/><ellipse cx="387.5" cy="295.5234" fill="#000000" rx="3" ry="3" style="stroke:#000000;stroke-width:1.0;"/><text fill="#000000" font-family="sans-serif" font-size="14" lengthAdjust="spacing" textLength="145" x="396.5" y="299.752">user_id : number &#171;FK&#187;</text><ellipse cx="387.5" cy="313.1328" fill="#000000" rx="3" ry="3" style="stroke:#000000;stroke-width:1.0;"/><text fill="#000000" font-family="sans-serif" font-size="14" lengthAdjust="spacing" textLength="81" x="396.5" y="317.3613">address: text</text></g><!--class Sensor--><g id="elem_Sensor"><rect codeLine="18" fill="#F1F1F1" height="153.6563" id="Sensor" rx="2.5" ry="2.5" style="stroke:#181818;stroke-width:0.5;" width="233" x="99.5" y="384.6094"/><ellipse cx="189.25" cy="400.6094" fill="#ADD1B2" rx="11" ry="11" style="stroke:#181818;stroke-width:1.0;"/><path d="M188.1094,401.4063 L188.1094,403.9063 L192.4375,403.9063 L192.4375,402.9844 Q192.4375,402.375 192.6797,402.1094 Q192.9219,401.8438 193.2969,401.8438 Q193.6719,401.8438 193.9063,402.1094 Q194.1406,402.375 194.1406,402.9844 L194.1406,405.6094 L186.1406,405.6094 Q185.5156,405.6094 185.2578,405.375 Q185,405.1406 185,404.75 Q185,404.375 185.2656,404.1406 Q185.5313,403.9063 186.1406,403.9063 L186.4063,403.9063 L186.4063,397.25 L186.1406,397.25 Q185.5156,397.25 185.2578,397.0156 Q185,396.7813 185,396.3906 Q185,396.0156 185.2578,395.7813 Q185.5156,395.5469 186.1406,395.5469 L193.7656,395.5469 L193.7656,398.1406 Q193.7656,398.75 193.5391,399.0078 Q193.3125,399.2656 192.9219,399.2656 Q192.5469,399.2656 192.3125,399.0078 Q192.0781,398.75 192.0781,398.1406 L192.0781,397.25 L188.1094,397.25 L188.1094,399.7031 L189.5938,399.7031 Q189.5938,399.0469 189.7188,398.8594 Q189.9844,398.4531 190.4531,398.4531 Q190.8281,398.4531 191.0625,398.7109 Q191.2969,398.9688 191.2969,399.5781 L191.2969,401.5469 Q191.2969,402.0938 191.1719,402.2813 Q190.9063,402.6719 190.4531,402.6719 Q189.9844,402.6719 189.7188,402.2656 Q189.5938,402.0781 189.5938,401.4063 L188.1094,401.4063 Z " fill="#000000"/><text fill="#000000" font-family="sans-serif" font-size="14" lengthAdjust="spacing" textLength="45" x="209.75" y="406.3379">Sensor</text><line style="stroke:#181818;stroke-width:0.5;" x1="100.5" x2="331.5" y1="416.6094" y2="416.6094"/><ellipse cx="110.5" cy="430.9141" fill="#000000" rx="3" ry="3" style="stroke:#000000;stroke-width:1.0;"/><text fill="#000000" font-family="sans-serif" font-size="14" lengthAdjust="spacing" textLength="207" x="119.5" y="435.1426">sensor_id : number &#171;generated&#187;</text><line style="stroke:#181818;stroke-width:1.0;" x1="100.5" x2="331.5" y1="442.2188" y2="442.2188"/><ellipse cx="110.5" cy="456.5234" fill="#000000" rx="3" ry="3" style="stroke:#000000;stroke-width:1.0;"/><text fill="#000000" font-family="sans-serif" font-size="14" lengthAdjust="spacing" textLength="156" x="119.5" y="460.752">house_id : number &#171;FK&#187;</text><ellipse cx="110.5" cy="474.1328" fill="#000000" rx="3" ry="3" style="stroke:#000000;stroke-width:1.0;"/><text fill="#000000" font-family="sans-serif" font-size="14" lengthAdjust="spacing" textLength="195" x="119.5" y="478.3613">sensor_type_id : number &#171;FK&#187;</text><ellipse cx="110.5" cy="491.7422" fill="#000000" rx="3" ry="3" style="stroke:#000000;stroke-width:1.0;"/><text fill="#000000" font-family="sans-serif" font-size="14" lengthAdjust="spacing" textLength="124" x="119.5" y="495.9707">serial_number : text</text><ellipse cx="110.5" cy="509.3516" fill="#000000" rx="3" ry="3" style="stroke:#000000;stroke-width:1.0;"/><text fill="#000000" font-family="sans-serif" font-size="14" lengthAdjust="spacing" textLength="101" x="119.5" y="513.5801">status : boolean</text><ellipse cx="110.5" cy="526.9609" fill="#000000" rx="3" ry="3" style="stroke:#000000;stroke-width:1.0;"/><text fill="#000000" font-family="sans-serif" font-size="14" lengthAdjust="spacing" textLength="162" x="119.5" y="531.1895">connected_at : timestamp</text></g><!--class SensorType--><g id="elem_SensorType"><rect codeLine="28" fill="#F1F1F1" height="83.2188" id="SensorType" rx="2.5" ry="2.5" style="stroke:#181818;stroke-width:0.5;" width="268" x="73" y="232.6094"/><ellipse cx="164.25" cy="248.6094" fill="#ADD1B2" rx="11" ry="11" style="stroke:#181818;stroke-width:1.0;"/><path d="M163.1094,249.4063 L163.1094,251.9063 L167.4375,251.9063 L167.4375,250.9844 Q167.4375,250.375 167.6797,250.1094 Q167.9219,249.8438 168.2969,249.8438 Q168.6719,249.8438 168.9063,250.1094 Q169.1406,250.375 169.1406,250.9844 L169.1406,253.6094 L161.1406,253.6094 Q160.5156,253.6094 160.2578,253.375 Q160,253.1406 160,252.75 Q160,252.375 160.2656,252.1406 Q160.5313,251.9063 161.1406,251.9063 L161.4063,251.9063 L161.4063,245.25 L161.1406,245.25 Q160.5156,245.25 160.2578,245.0156 Q160,244.7813 160,244.3906 Q160,244.0156 160.2578,243.7813 Q160.5156,243.5469 161.1406,243.5469 L168.7656,243.5469 L168.7656,246.1406 Q168.7656,246.75 168.5391,247.0078 Q168.3125,247.2656 167.9219,247.2656 Q167.5469,247.2656 167.3125,247.0078 Q167.0781,246.75 167.0781,246.1406 L167.0781,245.25 L163.1094,245.25 L163.1094,247.7031 L164.5938,247.7031 Q164.5938,247.0469 164.7188,246.8594 Q164.9844,246.4531 165.4531,246.4531 Q165.8281,246.4531 166.0625,246.7109 Q166.2969,246.9688 166.2969,247.5781 L166.2969,249.5469 Q166.2969,250.0938 166.1719,250.2813 Q165.9063,250.6719 165.4531,250.6719 Q164.9844,250.6719 164.7188,250.2656 Q164.5938,250.0781 164.5938,249.4063 L163.1094,249.4063 Z " fill="#000000"/><text fill="#000000" font-family="sans-serif" font-size="14" lengthAdjust="spacing" textLength="77" x="184.75" y="254.3379">SensorType</text><line style="stroke:#181818;stroke-width:0.5;" x1="74" x2="340" y1="264.6094" y2="264.6094"/><ellipse cx="84" cy="278.9141" fill="#000000" rx="3" ry="3" style="stroke:#000000;stroke-width:1.0;"/><text fill="#000000" font-family="sans-serif" font-size="14" lengthAdjust="spacing" textLength="242" x="93" y="283.1426">sensor_type_id : number &#171;generated&#187;</text><line style="stroke:#181818;stroke-width:1.0;" x1="74" x2="340" y1="290.2188" y2="290.2188"/><ellipse cx="84" cy="304.5234" fill="#000000" rx="3" ry="3" style="stroke:#000000;stroke-width:1.0;"/><text fill="#000000" font-family="sans-serif" font-size="14" lengthAdjust="spacing" textLength="155" x="93" y="308.752">sensor_type_name : text</text></g><!--class SensorData--><g id="elem_SensorData"><rect codeLine="34" fill="#F1F1F1" height="100.8281" id="SensorData" rx="2.5" ry="2.5" style="stroke:#181818;stroke-width:0.5;" width="186" x="7" y="607.1094"/><ellipse cx="58.25" cy="623.1094" fill="#ADD1B2" rx="11" ry="11" style="stroke:#181818;stroke-width:1.0;"/><path d="M57.1094,623.9063 L57.1094,626.4063 L61.4375,626.4063 L61.4375,625.4844 Q61.4375,624.875 61.6797,624.6094 Q61.9219,624.3438 62.2969,624.3438 Q62.6719,624.3438 62.9063,624.6094 Q63.1406,624.875 63.1406,625.4844 L63.1406,628.1094 L55.1406,628.1094 Q54.5156,628.1094 54.2578,627.875 Q54,627.6406 54,627.25 Q54,626.875 54.2656,626.6406 Q54.5313,626.4063 55.1406,626.4063 L55.4063,626.4063 L55.4063,619.75 L55.1406,619.75 Q54.5156,619.75 54.2578,619.5156 Q54,619.2813 54,618.8906 Q54,618.5156 54.2578,618.2813 Q54.5156,618.0469 55.1406,618.0469 L62.7656,618.0469 L62.7656,620.6406 Q62.7656,621.25 62.5391,621.5078 Q62.3125,621.7656 61.9219,621.7656 Q61.5469,621.7656 61.3125,621.5078 Q61.0781,621.25 61.0781,620.6406 L61.0781,619.75 L57.1094,619.75 L57.1094,622.2031 L58.5938,622.2031 Q58.5938,621.5469 58.7188,621.3594 Q58.9844,620.9531 59.4531,620.9531 Q59.8281,620.9531 60.0625,621.2109 Q60.2969,621.4688 60.2969,622.0781 L60.2969,624.0469 Q60.2969,624.5938 60.1719,624.7813 Q59.9063,625.1719 59.4531,625.1719 Q58.9844,625.1719 58.7188,624.7656 Q58.5938,624.5781 58.5938,623.9063 L57.1094,623.9063 Z " fill="#000000"/><text fill="#000000" font-family="sans-serif" font-size="14" lengthAdjust="spacing" textLength="75" x="78.75" y="628.8379">SensorData</text><line style="stroke:#181818;stroke-width:0.5;" x1="8" x2="192" y1="639.1094" y2="639.1094"/><line style="stroke:#181818;stroke-width:1.0;" x1="8" x2="192" y1="647.1094" y2="647.1094"/><ellipse cx="18" cy="661.4141" fill="#000000" rx="3" ry="3" style="stroke:#000000;stroke-width:1.0;"/><text fill="#000000" font-family="sans-serif" font-size="14" lengthAdjust="spacing" textLength="160" x="27" y="665.6426">sensor_id : number &#171;FK&#187;</text><ellipse cx="18" cy="679.0234" fill="#000000" rx="3" ry="3" style="stroke:#000000;stroke-width:1.0;"/><text fill="#000000" font-family="sans-serif" font-size="14" lengthAdjust="spacing" textLength="66" x="27" y="683.252">data : json</text><ellipse cx="18" cy="696.6328" fill="#000000" rx="3" ry="3" style="stroke:#000000;stroke-width:1.0;"/><text fill="#000000" font-family="sans-serif" font-size="14" lengthAdjust="spacing" textLength="144" x="27" y="700.8613">created_at : timestamp</text></g><!--class Device--><g id="elem_Device"><rect codeLine="41" fill="#F1F1F1" height="153.6563" id="Device" rx="2.5" ry="2.5" style="stroke:#181818;stroke-width:0.5;" width="231" x="649.5" y="384.6094"/><ellipse cx="739.25" cy="400.6094" fill="#ADD1B2" rx="11" ry="11" style="stroke:#181818;stroke-width:1.0;"/><path d="M738.1094,401.4063 L738.1094,403.9063 L742.4375,403.9063 L742.4375,402.9844 Q742.4375,402.375 742.6797,402.1094 Q742.9219,401.8438 743.2969,401.8438 Q743.6719,401.8438 743.9063,402.1094 Q744.1406,402.375 744.1406,402.9844 L744.1406,405.6094 L736.1406,405.6094 Q735.5156,405.6094 735.2578,405.375 Q735,405.1406 735,404.75 Q735,404.375 735.2656,404.1406 Q735.5313,403.9063 736.1406,403.9063 L736.4063,403.9063 L736.4063,397.25 L736.1406,397.25 Q735.5156,397.25 735.2578,397.0156 Q735,396.7813 735,396.3906 Q735,396.0156 735.2578,395.7813 Q735.5156,395.5469 736.1406,395.5469 L743.7656,395.5469 L743.7656,398.1406 Q743.7656,398.75 743.5391,399.0078 Q743.3125,399.2656 742.9219,399.2656 Q742.5469,399.2656 742.3125,399.0078 Q742.0781,398.75 742.0781,398.1406 L742.0781,397.25 L738.1094,397.25 L738.1094,399.7031 L739.5938,399.7031 Q739.5938,399.0469 739.7188,398.8594 Q739.9844,398.4531 740.4531,398.4531 Q740.8281,398.4531 741.0625,398.7109 Q741.2969,398.9688 741.2969,399.5781 L741.2969,401.5469 Q741.2969,402.0938 741.1719,402.2813 Q740.9063,402.6719 740.4531,402.6719 Q739.9844,402.6719 739.7188,402.2656 Q739.5938,402.0781 739.5938,401.4063 L738.1094,401.4063 Z " fill="#000000"/><text fill="#000000" font-family="sans-serif" font-size="14" lengthAdjust="spacing" textLength="43" x="759.75" y="406.3379">Device</text><line style="stroke:#181818;stroke-width:0.5;" x1="650.5" x2="879.5" y1="416.6094" y2="416.6094"/><ellipse cx="660.5" cy="430.9141" fill="#000000" rx="3" ry="3" style="stroke:#000000;stroke-width:1.0;"/><text fill="#000000" font-family="sans-serif" font-size="14" lengthAdjust="spacing" textLength="205" x="669.5" y="435.1426">device_id : number &#171;generated&#187;</text><line style="stroke:#181818;stroke-width:1.0;" x1="650.5" x2="879.5" y1="442.2188" y2="442.2188"/><ellipse cx="660.5" cy="456.5234" fill="#000000" rx="3" ry="3" style="stroke:#000000;stroke-width:1.0;"/><text fill="#000000" font-family="sans-serif" font-size="14" lengthAdjust="spacing" textLength="156" x="669.5" y="460.752">house_id : number &#171;FK&#187;</text><ellipse cx="660.5" cy="474.1328" fill="#000000" rx="3" ry="3" style="stroke:#000000;stroke-width:1.0;"/><text fill="#000000" font-family="sans-serif" font-size="14" lengthAdjust="spacing" textLength="193" x="669.5" y="478.3613">device_type_id : number &#171;FK&#187;</text><ellipse cx="660.5" cy="491.7422" fill="#000000" rx="3" ry="3" style="stroke:#000000;stroke-width:1.0;"/><text fill="#000000" font-family="sans-serif" font-size="14" lengthAdjust="spacing" textLength="124" x="669.5" y="495.9707">serial_number : text</text><ellipse cx="660.5" cy="509.3516" fill="#000000" rx="3" ry="3" style="stroke:#000000;stroke-width:1.0;"/><text fill="#000000" font-family="sans-serif" font-size="14" lengthAdjust="spacing" textLength="101" x="669.5" y="513.5801">status : boolean</text><ellipse cx="660.5" cy="526.9609" fill="#000000" rx="3" ry="3" style="stroke:#000000;stroke-width:1.0;"/><text fill="#000000" font-family="sans-serif" font-size="14" lengthAdjust="spacing" textLength="162" x="669.5" y="531.1895">connected_at : timestamp</text></g><!--class DeviceType--><g id="elem_DeviceType"><rect codeLine="51" fill="#F1F1F1" height="83.2188" id="DeviceType" rx="2.5" ry="2.5" style="stroke:#181818;stroke-width:0.5;" width="266" x="641" y="232.6094"/><ellipse cx="732.25" cy="248.6094" fill="#ADD1B2" rx="11" ry="11" style="stroke:#181818;stroke-width:1.0;"/><path d="M731.1094,249.4063 L731.1094,251.9063 L735.4375,251.9063 L735.4375,250.9844 Q735.4375,250.375 735.6797,250.1094 Q735.9219,249.8438 736.2969,249.8438 Q736.6719,249.8438 736.9063,250.1094 Q737.1406,250.375 737.1406,250.9844 L737.1406,253.6094 L729.1406,253.6094 Q728.5156,253.6094 728.2578,253.375 Q728,253.1406 728,252.75 Q728,252.375 728.2656,252.1406 Q728.5313,251.9063 729.1406,251.9063 L729.4063,251.9063 L729.4063,245.25 L729.1406,245.25 Q728.5156,245.25 728.2578,245.0156 Q728,244.7813 728,244.3906 Q728,244.0156 728.2578,243.7813 Q728.5156,243.5469 729.1406,243.5469 L736.7656,243.5469 L736.7656,246.1406 Q736.7656,246.75 736.5391,247.0078 Q736.3125,247.2656 735.9219,247.2656 Q735.5469,247.2656 735.3125,247.0078 Q735.0781,246.75 735.0781,246.1406 L735.0781,245.25 L731.1094,245.25 L731.1094,247.7031 L732.5938,247.7031 Q732.5938,247.0469 732.7188,246.8594 Q732.9844,246.4531 733.4531,246.4531 Q733.8281,246.4531 734.0625,246.7109 Q734.2969,246.9688 734.2969,247.5781 L734.2969,249.5469 Q734.2969,250.0938 734.1719,250.2813 Q733.9063,250.6719 733.4531,250.6719 Q732.9844,250.6719 732.7188,250.2656 Q732.5938,250.0781 732.5938,249.4063 L731.1094,249.4063 Z " fill="#000000"/><text fill="#000000" font-family="sans-serif" font-size="14" lengthAdjust="spacing" textLength="75" x="752.75" y="254.3379">DeviceType</text><line style="stroke:#181818;stroke-width:0.5;" x1="642" x2="906" y1="264.6094" y2="264.6094"/><ellipse cx="652" cy="278.9141" fill="#000000" rx="3" ry="3" style="stroke:#000000;stroke-width:1.0;"/><text fill="#000000" font-family="sans-serif" font-size="14" lengthAdjust="spacing" textLength="240" x="661" y="283.1426">device_type_id : number &#171;generated&#187;</text><line style="stroke:#181818;stroke-width:1.0;" x1="642" x2="906" y1="290.2188" y2="290.2188"/><ellipse cx="652" cy="304.5234" fill="#000000" rx="3" ry="3" style="stroke:#000000;stroke-width:1.0;"/><text fill="#000000" font-family="sans-serif" font-size="14" lengthAdjust="spacing" textLength="153" x="661" y="308.752">device_type_name : text</text></g><!--class DeviceState--><g id="elem_DeviceState"><rect codeLine="57" fill="#F1F1F1" height="100.8281" id="DeviceState" rx="2.5" ry="2.5" style="stroke:#181818;stroke-width:0.5;" width="184" x="774" y="607.1094"/><ellipse cx="823.75" cy="623.1094" fill="#ADD1B2" rx="11" ry="11" style="stroke:#181818;stroke-width:1.0;"/><path d="M822.6094,623.9063 L822.6094,626.4063 L826.9375,626.4063 L826.9375,625.4844 Q826.9375,624.875 827.1797,624.6094 Q827.4219,624.3438 827.7969,624.3438 Q828.1719,624.3438 828.4063,624.6094 Q828.6406,624.875 828.6406,625.4844 L828.6406,628.1094 L820.6406,628.1094 Q820.0156,628.1094 819.7578,627.875 Q819.5,627.6406 819.5,627.25 Q819.5,626.875 819.7656,626.6406 Q820.0313,626.4063 820.6406,626.4063 L820.9063,626.4063 L820.9063,619.75 L820.6406,619.75 Q820.0156,619.75 819.7578,619.5156 Q819.5,619.2813 819.5,618.8906 Q819.5,618.5156 819.7578,618.2813 Q820.0156,618.0469 820.6406,618.0469 L828.2656,618.0469 L828.2656,620.6406 Q828.2656,621.25 828.0391,621.5078 Q827.8125,621.7656 827.4219,621.7656 Q827.0469,621.7656 826.8125,621.5078 Q826.5781,621.25 826.5781,620.6406 L826.5781,619.75 L822.6094,619.75 L822.6094,622.2031 L824.0938,622.2031 Q824.0938,621.5469 824.2188,621.3594 Q824.4844,620.9531 824.9531,620.9531 Q825.3281,620.9531 825.5625,621.2109 Q825.7969,621.4688 825.7969,622.0781 L825.7969,624.0469 Q825.7969,624.5938 825.6719,624.7813 Q825.4063,625.1719 824.9531,625.1719 Q824.4844,625.1719 824.2188,624.7656 Q824.0938,624.5781 824.0938,623.9063 L822.6094,623.9063 Z " fill="#000000"/><text fill="#000000" font-family="sans-serif" font-size="14" lengthAdjust="spacing" textLength="76" x="844.25" y="628.8379">DeviceState</text><line style="stroke:#181818;stroke-width:0.5;" x1="775" x2="957" y1="639.1094" y2="639.1094"/><line style="stroke:#181818;stroke-width:1.0;" x1="775" x2="957" y1="647.1094" y2="647.1094"/><ellipse cx="785" cy="661.4141" fill="#000000" rx="3" ry="3" style="stroke:#000000;stroke-width:1.0;"/><text fill="#000000" font-family="sans-serif" font-size="14" lengthAdjust="spacing" textLength="158" x="794" y="665.6426">device_id : number &#171;FK&#187;</text><ellipse cx="785" cy="679.0234" fill="#000000" rx="3" ry="3" style="stroke:#000000;stroke-width:1.0;"/><text fill="#000000" font-family="sans-serif" font-size="14" lengthAdjust="spacing" textLength="69" x="794" y="683.252">state : json</text><ellipse cx="785" cy="696.6328" fill="#000000" rx="3" ry="3" style="stroke:#000000;stroke-width:1.0;"/><text fill="#000000" font-family="sans-serif" font-size="14" lengthAdjust="spacing" textLength="148" x="794" y="700.8613">updated_at : timestamp</text></g><!--class Trigger--><g id="elem_Trigger"><rect codeLine="64" fill="#F1F1F1" height="118.4375" id="Trigger" rx="2.5" ry="2.5" style="stroke:#181818;stroke-width:0.5;" width="231" x="375.5" y="402.6094"/><ellipse cx="463.75" cy="418.6094" fill="#ADD1B2" rx="11" ry="11" style="stroke:#181818;stroke-width:1.0;"/><path d="M462.6094,419.4063 L462.6094,421.9063 L466.9375,421.9063 L466.9375,420.9844 Q466.9375,420.375 467.1797,420.1094 Q467.4219,419.8438 467.7969,419.8438 Q468.1719,419.8438 468.4063,420.1094 Q468.6406,420.375 468.6406,420.9844 L468.6406,423.6094 L460.6406,423.6094 Q460.0156,423.6094 459.7578,423.375 Q459.5,423.1406 459.5,422.75 Q459.5,422.375 459.7656,422.1406 Q460.0313,421.9063 460.6406,421.9063 L460.9063,421.9063 L460.9063,415.25 L460.6406,415.25 Q460.0156,415.25 459.7578,415.0156 Q459.5,414.7813 459.5,414.3906 Q459.5,414.0156 459.7578,413.7813 Q460.0156,413.5469 460.6406,413.5469 L468.2656,413.5469 L468.2656,416.1406 Q468.2656,416.75 468.0391,417.0078 Q467.8125,417.2656 467.4219,417.2656 Q467.0469,417.2656 466.8125,417.0078 Q466.5781,416.75 466.5781,416.1406 L466.5781,415.25 L462.6094,415.25 L462.6094,417.7031 L464.0938,417.7031 Q464.0938,417.0469 464.2188,416.8594 Q464.4844,416.4531 464.9531,416.4531 Q465.3281,416.4531 465.5625,416.7109 Q465.7969,416.9688 465.7969,417.5781 L465.7969,419.5469 Q465.7969,420.0938 465.6719,420.2813 Q465.4063,420.6719 464.9531,420.6719 Q464.4844,420.6719 464.2188,420.2656 Q464.0938,420.0781 464.0938,419.4063 L462.6094,419.4063 Z " fill="#000000"/><text fill="#000000" font-family="sans-serif" font-size="14" lengthAdjust="spacing" textLength="46" x="484.25" y="424.3379">Trigger</text><line style="stroke:#181818;stroke-width:0.5;" x1="376.5" x2="605.5" y1="434.6094" y2="434.6094"/><ellipse cx="386.5" cy="448.9141" fill="#000000" rx="3" ry="3" style="stroke:#000000;stroke-width:1.0;"/><text fill="#000000" font-family="sans-serif" font-size="14" lengthAdjust="spacing" textLength="205" x="395.5" y="453.1426">trigger_id : number &#171;generated&#187;</text><line style="stroke:#181818;stroke-width:1.0;" x1="376.5" x2="605.5" y1="460.2188" y2="460.2188"/><ellipse cx="386.5" cy="474.5234" fill="#000000" rx="3" ry="3" style="stroke:#000000;stroke-width:1.0;"/><text fill="#000000" font-family="sans-serif" font-size="14" lengthAdjust="spacing" textLength="156" x="395.5" y="478.752">house_id : number &#171;FK&#187;</text><ellipse cx="386.5" cy="492.1328" fill="#000000" rx="3" ry="3" style="stroke:#000000;stroke-width:1.0;"/><text fill="#000000" font-family="sans-serif" font-size="14" lengthAdjust="spacing" textLength="101" x="395.5" y="496.3613">status : boolean</text><ellipse cx="386.5" cy="509.7422" fill="#000000" rx="3" ry="3" style="stroke:#000000;stroke-width:1.0;"/><text fill="#000000" font-family="sans-serif" font-size="14" lengthAdjust="spacing" textLength="144" x="395.5" y="513.9707">created_at : timestamp</text></g><!--class TriggerCondition--><g id="elem_TriggerCondition"><rect codeLine="72" fill="#F1F1F1" height="118.4375" id="TriggerCondition" rx="2.5" ry="2.5" style="stroke:#181818;stroke-width:0.5;" width="247" x="228.5" y="598.6094"/><ellipse cx="294.75" cy="614.6094" fill="#ADD1B2" rx="11" ry="11" style="stroke:#181818;stroke-width:1.0;"/><path d="M293.6094,615.4063 L293.6094,617.9063 L297.9375,617.9063 L297.9375,616.9844 Q297.9375,616.375 298.1797,616.1094 Q298.4219,615.8438 298.7969,615.8438 Q299.1719,615.8438 299.4063,616.1094 Q299.6406,616.375 299.6406,616.9844 L299.6406,619.6094 L291.6406,619.6094 Q291.0156,619.6094 290.7578,619.375 Q290.5,619.1406 290.5,618.75 Q290.5,618.375 290.7656,618.1406 Q291.0313,617.9063 291.6406,617.9063 L291.9063,617.9063 L291.9063,611.25 L291.6406,611.25 Q291.0156,611.25 290.7578,611.0156 Q290.5,610.7813 290.5,610.3906 Q290.5,610.0156 290.7578,609.7813 Q291.0156,609.5469 291.6406,609.5469 L299.2656,609.5469 L299.2656,612.1406 Q299.2656,612.75 299.0391,613.0078 Q298.8125,613.2656 298.4219,613.2656 Q298.0469,613.2656 297.8125,613.0078 Q297.5781,612.75 297.5781,612.1406 L297.5781,611.25 L293.6094,611.25 L293.6094,613.7031 L295.0938,613.7031 Q295.0938,613.0469 295.2188,612.8594 Q295.4844,612.4531 295.9531,612.4531 Q296.3281,612.4531 296.5625,612.7109 Q296.7969,612.9688 296.7969,613.5781 L296.7969,615.5469 Q296.7969,616.0938 296.6719,616.2813 Q296.4063,616.6719 295.9531,616.6719 Q295.4844,616.6719 295.2188,616.2656 Q295.0938,616.0781 295.0938,615.4063 L293.6094,615.4063 Z " fill="#000000"/><text fill="#000000" font-family="sans-serif" font-size="14" lengthAdjust="spacing" textLength="106" x="315.25" y="620.3379">TriggerCondition</text><line style="stroke:#181818;stroke-width:0.5;" x1="229.5" x2="474.5" y1="630.6094" y2="630.6094"/><ellipse cx="239.5" cy="644.9141" fill="#000000" rx="3" ry="3" style="stroke:#000000;stroke-width:1.0;"/><text fill="#000000" font-family="sans-serif" font-size="14" lengthAdjust="spacing" textLength="221" x="248.5" y="649.1426">condition_id : number &#171;generated&#187;</text><line style="stroke:#181818;stroke-width:1.0;" x1="229.5" x2="474.5" y1="656.2188" y2="656.2188"/><ellipse cx="239.5" cy="670.5234" fill="#000000" rx="3" ry="3" style="stroke:#000000;stroke-width:1.0;"/><text fill="#000000" font-family="sans-serif" font-size="14" lengthAdjust="spacing" textLength="158" x="248.5" y="674.752">trigger_id : number &#171;FK&#187;</text><ellipse cx="239.5" cy="688.1328" fill="#000000" rx="3" ry="3" style="stroke:#000000;stroke-width:1.0;"/><text fill="#000000" font-family="sans-serif" font-size="14" lengthAdjust="spacing" textLength="160" x="248.5" y="692.3613">sensor_id : number &#171;FK&#187;</text><ellipse cx="239.5" cy="705.7422" fill="#000000" rx="3" ry="3" style="stroke:#000000;stroke-width:1.0;"/><text fill="#000000" font-family="sans-serif" font-size="14" lengthAdjust="spacing" textLength="182" x="248.5" y="709.9707">sensor_condition_data : json</text></g><!--class TriggerAction--><g id="elem_TriggerAction"><rect codeLine="80" fill="#F1F1F1" height="118.4375" id="TriggerAction" rx="2.5" ry="2.5" style="stroke:#181818;stroke-width:0.5;" width="228" x="511" y="598.6094"/><ellipse cx="578.25" cy="614.6094" fill="#ADD1B2" rx="11" ry="11" style="stroke:#181818;stroke-width:1.0;"/><path d="M577.1094,615.4063 L577.1094,617.9063 L581.4375,617.9063 L581.4375,616.9844 Q581.4375,616.375 581.6797,616.1094 Q581.9219,615.8438 582.2969,615.8438 Q582.6719,615.8438 582.9063,616.1094 Q583.1406,616.375 583.1406,616.9844 L583.1406,619.6094 L575.1406,619.6094 Q574.5156,619.6094 574.2578,619.375 Q574,619.1406 574,618.75 Q574,618.375 574.2656,618.1406 Q574.5313,617.9063 575.1406,617.9063 L575.4063,617.9063 L575.4063,611.25 L575.1406,611.25 Q574.5156,611.25 574.2578,611.0156 Q574,610.7813 574,610.3906 Q574,610.0156 574.2578,609.7813 Q574.5156,609.5469 575.1406,609.5469 L582.7656,609.5469 L582.7656,612.1406 Q582.7656,612.75 582.5391,613.0078 Q582.3125,613.2656 581.9219,613.2656 Q581.5469,613.2656 581.3125,613.0078 Q581.0781,612.75 581.0781,612.1406 L581.0781,611.25 L577.1094,611.25 L577.1094,613.7031 L578.5938,613.7031 Q578.5938,613.0469 578.7188,612.8594 Q578.9844,612.4531 579.4531,612.4531 Q579.8281,612.4531 580.0625,612.7109 Q580.2969,612.9688 580.2969,613.5781 L580.2969,615.5469 Q580.2969,616.0938 580.1719,616.2813 Q579.9063,616.6719 579.4531,616.6719 Q578.9844,616.6719 578.7188,616.2656 Q578.5938,616.0781 578.5938,615.4063 L577.1094,615.4063 Z " fill="#000000"/><text fill="#000000" font-family="sans-serif" font-size="14" lengthAdjust="spacing" textLength="85" x="598.75" y="620.3379">TriggerAction</text><line style="stroke:#181818;stroke-width:0.5;" x1="512" x2="738" y1="630.6094" y2="630.6094"/><ellipse cx="522" cy="644.9141" fill="#000000" rx="3" ry="3" style="stroke:#000000;stroke-width:1.0;"/><text fill="#000000" font-family="sans-serif" font-size="14" lengthAdjust="spacing" textLength="202" x="531" y="649.1426">action_id : number &#171;generated&#187;</text><line style="stroke:#181818;stroke-width:1.0;" x1="512" x2="738" y1="656.2188" y2="656.2188"/><ellipse cx="522" cy="670.5234" fill="#000000" rx="3" ry="3" style="stroke:#000000;stroke-width:1.0;"/><text fill="#000000" font-family="sans-serif" font-size="14" lengthAdjust="spacing" textLength="158" x="531" y="674.752">trigger_id : number &#171;FK&#187;</text><ellipse cx="522" cy="688.1328" fill="#000000" rx="3" ry="3" style="stroke:#000000;stroke-width:1.0;"/><text fill="#000000" font-family="sans-serif" font-size="14" lengthAdjust="spacing" textLength="158" x="531" y="692.3613">device_id : number &#171;FK&#187;</text><ellipse cx="522" cy="705.7422" fill="#000000" rx="3" ry="3" style="stroke:#000000;stroke-width:1.0;"/><text fill="#000000" font-family="sans-serif" font-size="14" lengthAdjust="spacing" textLength="163" x="531" y="709.9707">device_target_state : json</text></g><!--link User to House--><g id="link_User_House"><path codeLine="88" d="M491,171.7194 C491,191.1894 491,196.6994 491,215.4494 " fill="none" id="User-House" style="stroke:#181818;stroke-width:1.0;"/><line style="stroke:#181818;stroke-width:1.0;" x1="487" x2="495" y1="167.7194" y2="167.7194"/><line style="stroke:#181818;stroke-width:1.0;" x1="487" x2="495" y1="170.7194" y2="170.7194"/><line style="stroke:#181818;stroke-width:1.0;" x1="491" x2="491" y1="171.7194" y2="163.7194"/><line style="stroke:#181818;stroke-width:1.0;" x1="491" x2="497" y1="215.4494" y2="223.4494"/><line style="stroke:#181818;stroke-width:1.0;" x1="491" x2="485" y1="215.4494" y2="223.4494"/><line style="stroke:#181818;stroke-width:1.0;" x1="491" x2="491" y1="215.4494" y2="223.4494"/><line style="stroke:#181818;stroke-width:1.0;" x1="495" x2="487" y1="213.4494" y2="213.4494"/></g><!--link House to Sensor--><g id="link_House_Sensor"><path codeLine="90" d="M410.6773,329.2924 C383.4673,347.6424 373.5321,354.3431 343.6621,374.4931 " fill="none" id="House-Sensor" style="stroke:#181818;stroke-width:1.0;"/><line style="stroke:#181818;stroke-width:1.0;" x1="411.7572" x2="416.2301" y1="323.7395" y2="330.3722"/><line style="stroke:#181818;stroke-width:1.0;" x1="409.2699" x2="413.7429" y1="325.4169" y2="332.0496"/><line style="stroke:#181818;stroke-width:1.0;" x1="410.6773" x2="417.31" y1="329.2924" y2="324.8194"/><line style="stroke:#181818;stroke-width:1.0;" x1="335.3721" x2="332.0954" y1="380.0855" y2="389.5334"/><line style="stroke:#181818;stroke-width:1.0;" x1="335.3721" x2="325.3846" y1="380.0855" y2="379.5853"/><line style="stroke:#181818;stroke-width:1.0;" x1="335.3721" x2="328.74" y1="380.0855" y2="384.5594"/><ellipse cx="340.3461" cy="376.73" fill="none" rx="4" ry="4" style="stroke:#181818;stroke-width:1.0;"/></g><!--link House to Device--><g id="link_House_Device"><path codeLine="91" d="M571.0543,329.3048 C598.1543,347.6548 608.0051,354.3175 637.7651,374.4675 " fill="none" id="House-Device" style="stroke:#181818;stroke-width:1.0;"/><line style="stroke:#181818;stroke-width:1.0;" x1="565.4994" x2="569.9848" y1="330.3742" y2="323.75"/><line style="stroke:#181818;stroke-width:1.0;" x1="567.9835" x2="572.4689" y1="332.0563" y2="325.432"/><line style="stroke:#181818;stroke-width:1.0;" x1="571.0543" x2="564.43" y1="329.3048" y2="324.8194"/><line style="stroke:#181818;stroke-width:1.0;" x1="646.0456" x2="656.0339" y1="380.0741" y2="379.5911"/><line style="stroke:#181818;stroke-width:1.0;" x1="646.0456" x2="649.3061" y1="380.0741" y2="389.5277"/><line style="stroke:#181818;stroke-width:1.0;" x1="646.0456" x2="652.67" y1="380.0741" y2="384.5594"/><ellipse cx="641.0773" cy="376.7102" fill="none" rx="4" ry="4" style="stroke:#181818;stroke-width:1.0;"/></g><!--link House to Trigger--><g id="link_House_Trigger"><path codeLine="92" d="M491,332.8194 C491,356.7494 491,359.5994 491,384.5294 " fill="none" id="House-Trigger" style="stroke:#181818;stroke-width:1.0;"/><line style="stroke:#181818;stroke-width:1.0;" x1="487" x2="495" y1="328.8194" y2="328.8194"/><line style="stroke:#181818;stroke-width:1.0;" x1="487" x2="495" y1="331.8194" y2="331.8194"/><line style="stroke:#181818;stroke-width:1.0;" x1="491" x2="491" y1="332.8194" y2="324.8194"/><line style="stroke:#181818;stroke-width:1.0;" x1="491" x2="497" y1="394.5294" y2="402.5294"/><line style="stroke:#181818;stroke-width:1.0;" x1="491" x2="485" y1="394.5294" y2="402.5294"/><line style="stroke:#181818;stroke-width:1.0;" x1="491" x2="491" y1="394.5294" y2="402.5294"/><ellipse cx="491" cy="388.5294" fill="none" rx="4" ry="4" style="stroke:#181818;stroke-width:1.0;"/></g><!--link SensorType to Sensor--><g id="link_SensorType_Sensor"><path codeLine="94" d="M209.3645,323.8101 C210.3345,343.9701 210.2989,343.0005 211.4389,366.5305 " fill="none" id="SensorType-Sensor" style="stroke:#181818;stroke-width:1.0;"/><line style="stroke:#181818;stroke-width:1.0;" x1="205.1769" x2="213.1676" y1="320.007" y2="319.6225"/><line style="stroke:#181818;stroke-width:1.0;" x1="205.321" x2="213.3118" y1="323.0035" y2="322.619"/><line style="stroke:#181818;stroke-width:1.0;" x1="209.3645" x2="208.98" y1="323.8101" y2="315.8194"/><line style="stroke:#181818;stroke-width:1.0;" x1="211.9229" x2="218.303" y1="376.5187" y2="384.219"/><line style="stroke:#181818;stroke-width:1.0;" x1="211.9229" x2="206.317" y1="376.5187" y2="384.7997"/><line style="stroke:#181818;stroke-width:1.0;" x1="211.9229" x2="212.31" y1="376.5187" y2="384.5094"/><ellipse cx="211.6325" cy="370.5258" fill="none" rx="4" ry="4" style="stroke:#181818;stroke-width:1.0;"/></g><!--link DeviceType to Device--><g id="link_DeviceType_Device"><path codeLine="95" d="M771.6355,323.8101 C770.6655,343.9701 770.7011,343.0005 769.5611,366.5305 " fill="none" id="DeviceType-Device" style="stroke:#181818;stroke-width:1.0;"/><line style="stroke:#181818;stroke-width:1.0;" x1="767.8324" x2="775.8231" y1="319.6225" y2="320.007"/><line style="stroke:#181818;stroke-width:1.0;" x1="767.6882" x2="775.679" y1="322.619" y2="323.0035"/><line style="stroke:#181818;stroke-width:1.0;" x1="771.6355" x2="772.02" y1="323.8101" y2="315.8194"/><line style="stroke:#181818;stroke-width:1.0;" x1="769.0771" x2="774.683" y1="376.5187" y2="384.7997"/><line style="stroke:#181818;stroke-width:1.0;" x1="769.0771" x2="762.697" y1="376.5187" y2="384.219"/><line style="stroke:#181818;stroke-width:1.0;" x1="769.0771" x2="768.69" y1="376.5187" y2="384.5094"/><ellipse cx="769.3675" cy="370.5258" fill="none" rx="4" ry="4" style="stroke:#181818;stroke-width:1.0;"/></g><!--link Sensor to SensorData--><g id="link_Sensor_SensorData"><path codeLine="97" d="M166.3846,545.5957 C152.6746,568.5257 151.3268,570.7701 138.9268,591.5101 " fill="none" id="Sensor-SensorData" style="stroke:#181818;stroke-width:1.0;"/><line style="stroke:#181818;stroke-width:1.0;" x1="165.0042" x2="171.8704" y1="540.1098" y2="544.2152"/><line style="stroke:#181818;stroke-width:1.0;" x1="163.4646" x2="170.3309" y1="542.6847" y2="546.7901"/><line style="stroke:#181818;stroke-width:1.0;" x1="166.3846" x2="170.49" y1="545.5957" y2="538.7294"/><line style="stroke:#181818;stroke-width:1.0;" x1="133.7952" x2="134.8398" y1="600.093" y2="610.0383"/><line style="stroke:#181818;stroke-width:1.0;" x1="133.7952" x2="124.5402" y1="600.093" y2="603.8804"/><line style="stroke:#181818;stroke-width:1.0;" x1="133.7952" x2="129.69" y1="600.093" y2="606.9594"/><ellipse cx="136.8742" cy="594.9432" fill="none" rx="4" ry="4" style="stroke:#181818;stroke-width:1.0;"/></g><!--link Device to DeviceState--><g id="link_Device_DeviceState"><path codeLine="98" d="M808.3248,545.825 C820.2648,568.755 825.6551,579.1238 836.4551,599.8638 " fill="none" id="Device-DeviceState" style="stroke:#181818;stroke-width:1.0;"/><line style="stroke:#181818;stroke-width:1.0;" x1="802.9296" x2="810.0252" y1="544.1246" y2="540.4298"/><line style="stroke:#181818;stroke-width:1.0;" x1="804.3151" x2="811.4108" y1="546.7855" y2="543.0907"/><line style="stroke:#181818;stroke-width:1.0;" x1="808.3248" x2="804.63" y1="545.825" y2="538.7294"/><line style="stroke:#181818;stroke-width:1.0;" x1="836.4551" x2="845.4717" y1="599.8638" y2="604.1882"/><line style="stroke:#181818;stroke-width:1.0;" x1="836.4551" x2="834.8283" y1="599.8638" y2="609.7306"/><line style="stroke:#181818;stroke-width:1.0;" x1="836.4551" x2="840.15" y1="599.8638" y2="606.9594"/><line style="stroke:#181818;stroke-width:1.0;" x1="839.0792" x2="831.9836" y1="596.2424" y2="599.9373"/></g><!--link Trigger to TriggerCondition--><g id="link_Trigger_TriggerCondition"><path codeLine="100" d="M444.6388,527.3212 C427.0388,551.8712 415.9189,567.396 398.3389,591.936 " fill="none" id="Trigger-TriggerCondition" style="stroke:#181818;stroke-width:1.0;"/><line style="stroke:#181818;stroke-width:1.0;" x1="443.7185" x2="450.2203" y1="521.7397" y2="526.4009"/><line style="stroke:#181818;stroke-width:1.0;" x1="441.9706" x2="448.4724" y1="524.1779" y2="528.839"/><line style="stroke:#181818;stroke-width:1.0;" x1="444.6388" x2="449.3" y1="527.3212" y2="520.8194"/><line style="stroke:#181818;stroke-width:1.0;" x1="398.3389" x2="398.5576" y1="591.936" y2="601.9336"/><line style="stroke:#181818;stroke-width:1.0;" x1="398.3389" x2="388.8024" y1="591.936" y2="594.9452"/><line style="stroke:#181818;stroke-width:1.0;" x1="398.3389" x2="393.68" y1="591.936" y2="598.4394"/><line style="stroke:#181818;stroke-width:1.0;" x1="402.7554" x2="396.2519" y1="592.6396" y2="587.9806"/></g><!--link Sensor to TriggerCondition--><g id="link_Sensor_TriggerCondition"><path codeLine="101" d="M273.9532,545.2794 C287.8732,565.1294 287.7182,564.9098 300.8682,583.6698 " fill="none" id="Sensor-TriggerCondition" style="stroke:#181818;stroke-width:1.0;"/><line style="stroke:#181818;stroke-width:1.0;" x1="268.3816" x2="274.9316" y1="544.301" y2="539.7077"/><line style="stroke:#181818;stroke-width:1.0;" x1="270.1041" x2="276.6541" y1="546.7572" y2="542.164"/><line style="stroke:#181818;stroke-width:1.0;" x1="273.9532" x2="269.36" y1="545.2794" y2="538.7294"/><line style="stroke:#181818;stroke-width:1.0;" x1="306.6081" x2="316.1132" y1="591.8585" y2="594.9654"/><line style="stroke:#181818;stroke-width:1.0;" x1="306.6081" x2="306.2868" y1="591.8585" y2="601.8533"/><line style="stroke:#181818;stroke-width:1.0;" x1="306.6081" x2="311.2" y1="591.8585" y2="598.4094"/><ellipse cx="303.1641" cy="586.9453" fill="none" rx="4" ry="4" style="stroke:#181818;stroke-width:1.0;"/></g><!--link Trigger to TriggerAction--><g id="link_Trigger_TriggerAction"><path codeLine="103" d="M535.7471,527.4014 C552.7071,551.9514 563.3234,567.3169 580.2734,591.8569 " fill="none" id="Trigger-TriggerAction" style="stroke:#181818;stroke-width:1.0;"/><line style="stroke:#181818;stroke-width:1.0;" x1="530.1825" x2="536.7646" y1="526.384" y2="521.8368"/><line style="stroke:#181818;stroke-width:1.0;" x1="531.8877" x2="538.4698" y1="528.8522" y2="524.3051"/><line style="stroke:#181818;stroke-width:1.0;" x1="535.7471" x2="531.2" y1="527.4014" y2="520.8194"/><line style="stroke:#181818;stroke-width:1.0;" x1="580.2734" x2="589.7568" y1="591.8569" y2="595.0295"/><line style="stroke:#181818;stroke-width:1.0;" x1="580.2734" x2="579.8832" y1="591.8569" y2="601.8493"/><line style="stroke:#181818;stroke-width:1.0;" x1="580.2734" x2="584.82" y1="591.8569" y2="598.4394"/><line style="stroke:#181818;stroke-width:1.0;" x1="582.428" x2="575.8456" y1="587.938" y2="592.4846"/></g><!--link Device to TriggerAction--><g id="link_Device_TriggerAction"><path codeLine="104" d="M705.3874,545.2158 C691.0574,565.0658 691.0743,565.0539 677.5343,583.8139 " fill="none" id="Device-TriggerAction" style="stroke:#181818;stroke-width:1.0;"/><line style="stroke:#181818;stroke-width:1.0;" x1="704.4855" x2="710.9719" y1="539.6313" y2="544.3139"/><line style="stroke:#181818;stroke-width:1.0;" x1="702.7295" x2="709.2159" y1="542.0637" y2="546.7463"/><line style="stroke:#181818;stroke-width:1.0;" x1="705.3874" x2="710.07" y1="545.2158" y2="538.7294"/><line style="stroke:#181818;stroke-width:1.0;" x1="671.6819" x2="671.8652" y1="591.9225" y2="601.9208"/><line style="stroke:#181818;stroke-width:1.0;" x1="671.6819" x2="662.1348" y1="591.9225" y2="594.8979"/><line style="stroke:#181818;stroke-width:1.0;" x1="671.6819" x2="667" y1="591.9225" y2="598.4094"/><ellipse cx="675.1933" cy="587.0573" fill="none" rx="4" ry="4" style="stroke:#181818;stroke-width:1.0;"/></g><!--SRC=[lLNBRi8m4BpxAtn6oWyWLAaghIfLlHHwHaky2guIEx8tLH7qt-l43ZWlu83A2UzhPhph3KdAaR-3L7m915kmo9yLITed7vW3IQtiJfPyAI4pK326ZPD_MZJymBZxpIhtVoC5dtDL5LjdNomoL6Y0K3myD359uaCL5EZY27_86x00cKU6SgSLRdoTOFuzWRvg1zMYxkh3ZR0Z35_UGimCX31exG1jXShgaqZRd6x46-Ds1WobQ5zUYZ4Iyd0HdHkp15HPPzfgdICeRqsrKfWw9XkWEbmMw0ABSg1dxL1xcaQ8J0cBC-9Uzb7gMGeelTGfmQBEcFClgrj51k6YdYL-o_IaHJIdk_GdbFhl_dWzSN-cYKm9YpF6- -DHLeuazXeqUeEHuYObxb1LYiiTMXkPPUSzGVvudpSqVilNPYOmUj9Ao7gtjTJIrd0ZkN4fWoT-nNr6ZQT_mFOnZQb2UaUULthUZXEO36dJcG37ila678z9SZpurSoOtz2rJH_2AkZQ_FXrRK4cOz66wfQ8daQtJaZfXjVB9wIqzAAfPwmTo-3hpqIlvi0zaU-x5EFglkyF]--></g></svg>